<svg xmlns="http://www.w3.org/2000/svg" width="15" height="17.001" viewBox="0 0 15 17.001">
  <path id="Lock_Icon" d="M-6758.5-5880a2.5,2.5,0,0,1-2.5-2.5v-5.124a2.5,2.5,0,0,1,2.5-2.5h.75v-2.206A3.714,3.714,0,0,1-6754-5896a3.714,3.714,0,0,1,3.75,3.67v2.206h.752a2.5,2.5,0,0,1,2.5,2.5v5.124a2.5,2.5,0,0,1-2.5,2.5Zm-1.249-7.625v5.124a1.252,1.252,0,0,0,1.249,1.251h9a1.251,1.251,0,0,0,1.249-1.251v-5.124a1.251,1.251,0,0,0-1.249-1.25h-9A1.251,1.251,0,0,0-6759.75-5887.625Zm3.248-4.705v2.206h5v-2.206a2.464,2.464,0,0,0-2.5-2.42A2.466,2.466,0,0,0-6756.5-5892.33Zm4.951,7.021a.936.936,0,0,1,.937-.935.935.935,0,0,1,.938.935.937.937,0,0,1-.938.94A.938.938,0,0,1-6751.551-5885.309Zm-2.256,0a.937.937,0,0,1,.938-.935.937.937,0,0,1,.937.935.939.939,0,0,1-.937.94A.939.939,0,0,1-6753.807-5885.309Zm-2.23,0a.936.936,0,0,1,.937-.935.937.937,0,0,1,.938.935.939.939,0,0,1-.938.94A.938.938,0,0,1-6756.037-5885.309Zm-2.228,0a.935.935,0,0,1,.938-.935.936.936,0,0,1,.937.935.938.938,0,0,1-.937.94A.937.937,0,0,1-6758.265-5885.309Z" transform="translate(6761.5 5896.5)" fill="#003361" stroke="rgba(0,0,0,0)" stroke-width="1"/>
</svg>
