<svg xmlns="http://www.w3.org/2000/svg" width="30" height="29.886" viewBox="0 0 30 29.886">
  <path id="Logout_Inactive" d="M9.966,29.822,2.333,27.056A1.222,1.222,0,0,1,2.143,27l-.258-.1-.1-.036a1.566,1.566,0,0,1-.184-.079L.82,26.463a1.147,1.147,0,0,1-.455-.334A1.148,1.148,0,0,1,0,25.287V1.149A1.149,1.149,0,0,1,1.149,0H18.391a1.149,1.149,0,0,1,1.149,1.149V4.6a1.149,1.149,0,1,1-2.3,0V2.3H6.04l4.687,1.649a1.148,1.148,0,0,1,.768,1.084V24.138h5.748v-2.3a1.149,1.149,0,0,1,2.3,0v3.448a1.15,1.15,0,0,1-1.149,1.15h-6.9v2.3a1.149,1.149,0,0,1-1.528,1.085Zm-.771-2.7V5.846L2.3,3.419V24.58l.708.286a1.163,1.163,0,0,1,.113.053Zm14.928-9.232a1.148,1.148,0,0,1-.031-1.625l2.375-2.467H13.793a1.149,1.149,0,0,1,0-2.3H26.05L24.207,9.58a1.149,1.149,0,1,1,1.657-1.593l3.814,3.964a1.151,1.151,0,0,1,.192,1.327,1.144,1.144,0,0,1-.307.612l-3.815,3.964a1.151,1.151,0,0,1-1.625.031Z" fill="#7ac8c3"/>
</svg>
