<svg xmlns="http://www.w3.org/2000/svg" width="30" height="22.748" viewBox="0 0 30 22.748">
  <path id="My_thoughts_Inactive" d="M-5594.437-2362.8a3.166,3.166,0,0,1-3.434-2.154c-.78-1.885-1.128-5.371-1.128-11.3v-9.294h22.458v8.5H-5569v.791c0,5.93-.348,9.416-1.128,11.3a3.167,3.167,0,0,1-3.435,2.154Zm18.343-5.035a9.562,9.562,0,0,0,.564,2.244c.507,1.211,1.088,1.211,1.967,1.211s1.461,0,1.969-1.211c.649-1.547.981-4.779,1.012-9.874h-5.959A56.859,56.859,0,0,0-5576.094-2367.837Zm-21.325-8.42c0,5.515.326,8.992,1,10.63a1.624,1.624,0,0,0,1.836,1.245h17.868a9.089,9.089,0,0,1-.9-2.928,57.4,57.4,0,0,1-.507-8.945v-7.713h-19.294Zm1.6,9.031v-1.47h7.471v1.47Zm0-4.335v-1.47h13.6v1.47Zm0-4.334v-1.47h8.584v1.47Zm0-4.333v-1.47h12.038v1.47Z" transform="translate(5599 2385.551)" fill="#7ac8c3"/>
</svg>
