<svg xmlns="http://www.w3.org/2000/svg" width="32.574" height="35.881" viewBox="0 0 32.574 35.881">
  <path id="notifications" d="M-13889.712-5241.426a1.3,1.3,0,0,1,.475-1.776,1.3,1.3,0,0,1,1.776.471,2.032,2.032,0,0,0,1.755,1.012,2.035,2.035,0,0,0,1.755-1.012,1.3,1.3,0,0,1,1.775-.471,1.3,1.3,0,0,1,.475,1.776,4.645,4.645,0,0,1-4,2.306A4.648,4.648,0,0,1-13889.712-5241.426Zm-10.973-6.008a1.311,1.311,0,0,1-1.263-.932,1.281,1.281,0,0,1,.534-1.448,8.593,8.593,0,0,0,2.188-2.857c1.019-1.943,2.236-5.436,2.236-11.042a11.216,11.216,0,0,1,3.3-7.983,11.222,11.222,0,0,1,7.979-3.3,11.229,11.229,0,0,1,7.982,3.3,11.229,11.229,0,0,1,3.3,7.983c0,5.743,1.27,9.281,2.337,11.234a8.236,8.236,0,0,0,2.076,2.662,1.3,1.3,0,0,1,.523,1.458,1.3,1.3,0,0,1-1.246.924Zm6.294-16.279a32.569,32.569,0,0,1-.816,7.557,20.223,20.223,0,0,1-1.838,4.923c-.245.447-.489.844-.729,1.2h24.137c-.237-.353-.481-.75-.726-1.2a19.908,19.908,0,0,1-1.839-4.923,32.411,32.411,0,0,1-.816-7.557,8.7,8.7,0,0,0-8.687-8.687A8.694,8.694,0,0,0-13894.391-5263.713Z" transform="translate(13902 5275)" fill="#003361"/>
</svg>
