<svg xmlns="http://www.w3.org/2000/svg" width="30" height="30" viewBox="0 0 30 30">
  <path id="settings__active" data-name="settings_]active" d="M31,10.2a1,1,0,0,0-.293-.707l-8.2-8.2A1,1,0,0,0,21.8,1H10.2a1,1,0,0,0-.707.293l-8.2,8.2A1,1,0,0,0,1,10.2V21.8a1,1,0,0,0,.293.707l8.2,8.2A1,1,0,0,0,10.2,31H21.8a1,1,0,0,0,.707-.293l8.2-8.2A1,1,0,0,0,31,21.8Zm-8,3.314a1,1,0,0,0-.293-.707L19.192,9.293A1,1,0,0,0,18.485,9h-4.97a1,1,0,0,0-.707.293L9.293,12.808A1,1,0,0,0,9,13.515v4.97a1,1,0,0,0,.293.707l3.515,3.515a1,1,0,0,0,.707.293h4.97a1,1,0,0,0,.707-.293l3.515-3.515A1,1,0,0,0,23,18.485v-4.97ZM13.929,11,11,13.929v4.142L13.929,21h4.142L21,18.071V13.929L18.071,11H13.929Z" transform="translate(-1 -1)" fill="#7ac8c3"/>
</svg>
