<svg xmlns="http://www.w3.org/2000/svg" width="17" height="17" viewBox="0 0 17 17">
  <path id="User_icon" d="M-6758.367-5789.4a1.671,1.671,0,0,1-1.634-1.7v-.543a3.578,3.578,0,0,1,1.858-3.169,13.346,13.346,0,0,1,6.143-1.695,13.357,13.357,0,0,1,6.143,1.695,3.575,3.575,0,0,1,1.856,3.169v.543a1.67,1.67,0,0,1-1.632,1.7Zm.75-4.363a2.39,2.39,0,0,0-1.24,2.117v.543a.5.5,0,0,0,.49.517h12.734a.5.5,0,0,0,.489-.517v-.543a2.39,2.39,0,0,0-1.24-2.117,12.235,12.235,0,0,0-5.616-1.562A12.236,12.236,0,0,0-6757.617-5793.767Zm1.765-7.489A4.013,4.013,0,0,1-6752-5805.4a4.013,4.013,0,0,1,3.851,4.148,4.013,4.013,0,0,1-3.851,4.148A4.013,4.013,0,0,1-6755.852-5801.255Zm1.1,0a2.865,2.865,0,0,0,2.751,2.962,2.865,2.865,0,0,0,2.75-2.962,2.865,2.865,0,0,0-2.75-2.962A2.865,2.865,0,0,0-6754.751-5801.255Z" transform="translate(6760.5 5805.903)" fill="#003361" stroke="rgba(0,0,0,0)" stroke-width="1"/>
</svg>
